<svg width="55" height="26" viewBox="0 0 55 26" fill="none" xmlns="http://www.w3.org/2000/svg">
<path d="M12.84 21L12.144 18.672H6.36L5.664 21H0.24L6.264 4.488H12.432L18.456 21H12.84ZM7.464 14.976H11.04L9.312 9.096H9.216L7.464 14.976ZM20.4557 4.488H33.7997V8.448H25.7597V11.28H32.6717V15.072H25.7597V21H20.4557V4.488ZM47.6475 4.488H54.2235L48.2955 11.28L54.3435 21H48.0795L44.6475 14.952L41.7675 17.304V21H36.4635V4.488H41.7675V11.544L47.6475 4.488Z" fill="#734500"/>
<path d="M12.84 21L12.361 21.1432L12.4676 21.5H12.84V21ZM12.144 18.672L12.623 18.5288L12.5164 18.172H12.144V18.672ZM6.36 18.672V18.172H5.98762L5.88095 18.5288L6.36 18.672ZM5.664 21V21.5H6.03638L6.14305 21.1432L5.664 21ZM0.24 21L-0.229717 20.8286L-0.474648 21.5H0.24V21ZM6.264 4.488V3.988H5.91418L5.79428 4.31663L6.264 4.488ZM12.432 4.488L12.9017 4.31663L12.7818 3.988H12.432V4.488ZM18.456 21V21.5H19.1706L18.9257 20.8286L18.456 21ZM7.464 14.976L6.98482 14.8332L6.7933 15.476H7.464V14.976ZM11.04 14.976V15.476H11.7081L11.5197 14.835L11.04 14.976ZM9.312 9.096L9.79171 8.95502L9.68621 8.596H9.312V9.096ZM9.216 9.096V8.596H8.84326L8.73682 8.95322L9.216 9.096ZM13.319 20.8568L12.623 18.5288L11.665 18.8152L12.361 21.1432L13.319 20.8568ZM12.144 18.172H6.36V19.172H12.144V18.172ZM5.88095 18.5288L5.18495 20.8568L6.14305 21.1432L6.83905 18.8152L5.88095 18.5288ZM5.664 20.5H0.24V21.5H5.664V20.5ZM0.709717 21.1714L6.73372 4.65936L5.79428 4.31663L-0.229717 20.8286L0.709717 21.1714ZM6.264 4.988H12.432V3.988H6.264V4.988ZM11.9623 4.65936L17.9863 21.1714L18.9257 20.8286L12.9017 4.31663L11.9623 4.65936ZM18.456 20.5H12.84V21.5H18.456V20.5ZM7.464 15.476H11.04V14.476H7.464V15.476ZM11.5197 14.835L9.79171 8.95502L8.83229 9.23698L10.5603 15.117L11.5197 14.835ZM9.312 8.596H9.216V9.596H9.312V8.596ZM8.73682 8.95322L6.98482 14.8332L7.94318 15.1188L9.69518 9.23878L8.73682 8.95322ZM20.4557 4.488V3.988H19.9557V4.488H20.4557ZM33.7997 4.488H34.2997V3.988H33.7997V4.488ZM33.7997 8.448V8.948H34.2997V8.448H33.7997ZM25.7597 8.448V7.948H25.2597V8.448H25.7597ZM25.7597 11.28H25.2597V11.78H25.7597V11.28ZM32.6717 11.28H33.1717V10.78H32.6717V11.28ZM32.6717 15.072V15.572H33.1717V15.072H32.6717ZM25.7597 15.072V14.572H25.2597V15.072H25.7597ZM25.7597 21V21.5H26.2597V21H25.7597ZM20.4557 21H19.9557V21.5H20.4557V21ZM20.4557 4.988H33.7997V3.988H20.4557V4.988ZM33.2997 4.488V8.448H34.2997V4.488H33.2997ZM33.7997 7.948H25.7597V8.948H33.7997V7.948ZM25.2597 8.448V11.28H26.2597V8.448H25.2597ZM25.7597 11.78H32.6717V10.78H25.7597V11.78ZM32.1717 11.28V15.072H33.1717V11.28H32.1717ZM32.6717 14.572H25.7597V15.572H32.6717V14.572ZM25.2597 15.072V21H26.2597V15.072H25.2597ZM25.7597 20.5H20.4557V21.5H25.7597V20.5ZM20.9557 21V4.488H19.9557V21H20.9557ZM47.6475 4.488V3.988H47.4133L47.2634 4.16791L47.6475 4.488ZM54.2235 4.488L54.6002 4.81678L55.3236 3.988H54.2235V4.488ZM48.2955 11.28L47.9188 10.9512L47.6755 11.23L47.871 11.5442L48.2955 11.28ZM54.3435 21V21.5H55.2435L54.768 20.7358L54.3435 21ZM48.0795 21L47.6446 21.2468L47.7883 21.5H48.0795V21ZM44.6475 14.952L45.0824 14.7052L44.79 14.1901L44.3312 14.5647L44.6475 14.952ZM41.7675 17.304L41.4512 16.9167L41.2675 17.0668V17.304H41.7675ZM41.7675 21V21.5H42.2675V21H41.7675ZM36.4635 21H35.9635V21.5H36.4635V21ZM36.4635 4.488V3.988H35.9635V4.488H36.4635ZM41.7675 4.488H42.2675V3.988H41.7675V4.488ZM41.7675 11.544H41.2675V12.925L42.1516 11.8641L41.7675 11.544ZM47.6475 4.988H54.2235V3.988H47.6475V4.988ZM53.8468 4.15922L47.9188 10.9512L48.6722 11.6088L54.6002 4.81678L53.8468 4.15922ZM47.871 11.5442L53.919 21.2642L54.768 20.7358L48.72 11.0158L47.871 11.5442ZM54.3435 20.5H48.0795V21.5H54.3435V20.5ZM48.5144 20.7532L45.0824 14.7052L44.2126 15.1988L47.6446 21.2468L48.5144 20.7532ZM44.3312 14.5647L41.4512 16.9167L42.0838 17.6913L44.9638 15.3393L44.3312 14.5647ZM41.2675 17.304V21H42.2675V17.304H41.2675ZM41.7675 20.5H36.4635V21.5H41.7675V20.5ZM36.9635 21V4.488H35.9635V21H36.9635ZM36.4635 4.988H41.7675V3.988H36.4635V4.988ZM41.2675 4.488V11.544H42.2675V4.488H41.2675ZM42.1516 11.8641L48.0316 4.80809L47.2634 4.16791L41.3834 11.2239L42.1516 11.8641Z" fill="#FFC32B"/>
</svg>
